<svg width="649" height="145" viewBox="0 0 649 145" fill="none" xmlns="http://www.w3.org/2000/svg">
<path d="M36.592 67.08V63.08H32.592V67.08H36.592ZM46.672 67.08V71.08H50.672V67.08H46.672ZM45.088 56.712L41.7598 58.9308L41.7757 58.9546L41.7918 58.9781L45.088 56.712ZM42.784 55.128L41.6346 58.9593L41.8149 59.0134L41.9995 59.0503L42.784 55.128ZM36.592 54.696H32.592V58.696H36.592V54.696ZM36.592 36.408V32.408H32.592V36.408H36.592ZM57.616 38.424L56.4514 42.2507L56.4627 42.2542L56.4741 42.2575L57.616 38.424ZM67.552 45.048L64.2558 47.3141L64.2762 47.3437L64.2971 47.3729L67.552 45.048ZM71.008 55.416L67.0244 55.7781L67.0285 55.8229L67.0336 55.8676L71.008 55.416ZM71.728 80.184V84.184H75.728V80.184H71.728ZM36.592 80.184H32.592V84.184H36.592V80.184ZM20.608 109.992L19.4317 113.815L19.475 113.828L19.5187 113.841L20.608 109.992ZM9.376 102.792L12.5534 100.362L12.5504 100.358L9.376 102.792ZM5.056 92.136L1.10351 92.7508L1.10568 92.7645L5.056 92.136ZM4.768 58.008L8.73997 58.4808L8.74123 58.47L4.768 58.008ZM7.792 47.496L4.28042 45.5806L4.27143 45.5971L4.26259 45.6136L7.792 47.496ZM15.712 40.152L17.4619 43.7489L17.4814 43.7394L17.5009 43.7297L15.712 40.152ZM30.544 36.696H34.544V32.3765L30.2372 32.7078L30.544 36.696ZM30.976 87.24L27.0537 88.0245L27.0591 88.0513L27.0648 88.0781L30.976 87.24ZM32.992 90.264L35.2108 86.9358L35.1754 86.9122L35.1395 86.8894L32.992 90.264ZM38.32 91.56L38.5695 87.5678L38.5247 87.565L38.4799 87.5632L38.32 91.56ZM61.504 91.416L61.1912 87.4282L61.1418 87.4321L61.0924 87.4372L61.504 91.416ZM68.848 90.84H72.848V86.514L68.5352 86.8522L68.848 90.84ZM68.848 109.416L69.9974 113.247L72.848 112.392V109.416H68.848ZM53.008 111.72L52.7798 107.727L52.718 107.73L52.6564 107.735L53.008 111.72ZM36.592 71.08H46.672V63.08H36.592V71.08ZM50.672 67.08C50.672 64.2849 50.5363 61.8559 50.2301 59.8519C49.9413 57.9613 49.4371 55.9774 48.3842 54.4459L41.7918 58.9781C41.7626 58.9356 41.8453 59.0461 41.9683 59.4338C42.0867 59.8069 42.2116 60.3379 42.3219 61.0601C42.5437 62.5121 42.672 64.4991 42.672 67.08H50.672ZM48.4162 54.4932C47.2914 52.8059 45.6367 51.6193 43.5685 51.2057L41.9995 59.0503C41.9931 59.049 41.9676 59.0431 41.9295 59.0273C41.891 59.0113 41.8511 58.9897 41.8139 58.9642C41.7333 58.9087 41.7219 58.8739 41.7598 58.9308L48.4162 54.4932ZM43.9334 51.2967C42.4124 50.8404 40.5581 50.696 38.608 50.696V58.696C40.3059 58.696 41.2356 58.8396 41.6346 58.9593L43.9334 51.2967ZM38.608 50.696H36.592V58.696H38.608V50.696ZM40.592 54.696V36.408H32.592V54.696H40.592ZM36.592 40.408H38.608V32.408H36.592V40.408ZM38.608 40.408C46.7281 40.408 52.5991 41.0783 56.4514 42.2507L58.7807 34.5973C53.8009 33.0817 46.9999 32.408 38.608 32.408V40.408ZM56.4741 42.2575C60.3451 43.4106 62.7854 45.1754 64.2558 47.3141L70.8482 42.7819C68.0946 38.7766 63.9109 36.1254 58.7579 34.5905L56.4741 42.2575ZM64.2971 47.3729C65.7027 49.3409 66.6868 52.0645 67.0244 55.7781L74.9916 55.0539C74.5612 50.3195 73.2413 46.1311 70.8069 42.723L64.2971 47.3729ZM67.0336 55.8676C67.4871 59.8588 67.728 66.0104 67.728 74.424H75.728C75.728 65.9416 75.4889 59.4212 74.9824 54.9644L67.0336 55.8676ZM67.728 74.424V80.184H75.728V74.424H67.728ZM71.728 76.184H36.592V84.184H71.728V76.184ZM40.592 80.184V67.08H32.592V80.184H40.592ZM41.488 108.152C32.8134 108.152 26.2731 107.438 21.6973 106.143L19.5187 113.841C25.1189 115.426 32.4987 116.152 41.488 116.152V108.152ZM21.7843 106.169C17.3716 104.811 14.4216 102.805 12.5534 100.362L6.19857 105.222C9.32244 109.307 13.8604 112.101 19.4317 113.815L21.7843 106.169ZM12.5504 100.358C10.8138 98.0931 9.5925 95.1921 9.00632 91.5075L1.10568 92.7645C1.8635 97.5279 3.5222 101.731 6.20158 105.226L12.5504 100.358ZM9.00847 91.5212C8.38261 87.4978 8.048 81.829 8.048 74.424H0.0480005C0.0480005 81.995 0.385388 88.1342 1.10353 92.7508L9.00847 91.5212ZM8.048 74.424C8.048 67.577 8.2871 62.2848 8.73995 58.4808L0.796047 57.5351C0.288896 61.7952 0.0480005 67.447 0.0480005 74.424H8.048ZM8.74123 58.47C9.17855 54.709 10.0755 51.7144 11.3214 49.3784L4.26259 45.6136C2.43649 49.0376 1.31745 53.051 0.794771 57.546L8.74123 58.47ZM11.3036 49.4114C12.5956 47.0427 14.5833 45.1493 17.4619 43.7489L13.9621 36.5551C9.7367 38.6107 6.44442 41.6132 4.28042 45.5806L11.3036 49.4114ZM17.5009 43.7297C20.5066 42.2269 24.8795 41.1435 30.8508 40.6842L30.2372 32.7078C23.7285 33.2084 18.2134 34.4291 13.9231 36.5743L17.5009 43.7297ZM26.544 36.696V80.184H34.544V36.696H26.544ZM26.544 80.184C26.544 83.4721 26.682 86.1663 27.0537 88.0245L34.8983 86.4555C34.694 85.4337 34.544 83.4239 34.544 80.184H26.544ZM27.0648 88.0781C27.553 90.3564 28.7914 92.3321 30.8445 93.6386L35.1395 86.8894C35.0652 86.8421 35.041 86.8104 35.0242 86.7852C35.0029 86.7532 34.9397 86.6469 34.8872 86.4019L27.0648 88.0781ZM30.7732 93.5922C32.8376 94.9685 35.4982 95.4503 38.1601 95.5568L38.4799 87.5632C36.3418 87.4777 35.4504 87.0955 35.2108 86.9358L30.7732 93.5922ZM38.0705 95.5522C41.2349 95.75 44.5827 95.848 48.112 95.848V87.848C44.7293 87.848 41.5491 87.754 38.5695 87.5678L38.0705 95.5522ZM48.112 95.848C54.2712 95.848 58.9115 95.7055 61.9156 95.3948L61.0924 87.4372C58.5285 87.7025 54.2408 87.848 48.112 87.848V95.848ZM61.8168 95.4038L69.1608 94.8278L68.5352 86.8522L61.1912 87.4282L61.8168 95.4038ZM64.848 90.84V109.416H72.848V90.84H64.848ZM67.6986 105.585C64.2922 106.607 59.3676 107.35 52.7798 107.727L53.2362 115.713C60.0884 115.322 65.7238 114.529 69.9974 113.247L67.6986 105.585ZM52.6564 107.735C49.5414 108.01 45.824 108.152 41.488 108.152V116.152C45.984 116.152 49.9466 116.006 53.3596 115.705L52.6564 107.735ZM79.4523 11.928V7.928H72.1818L76.0736 14.0691L79.4523 11.928ZM112.14 11.928L115.517 9.78335L114.338 7.928H112.14V11.928ZM175.068 111V115H182.348L178.445 108.855L175.068 111ZM142.236 111L138.858 113.141L140.036 115H142.236V111ZM132.156 32.088L128.641 30.1796L127.521 32.2425L128.776 34.2263L132.156 32.088ZM143.1 11.928V7.928H140.72L139.585 10.0196L143.1 11.928ZM174.636 11.928L178.034 14.038L181.828 7.928H174.636V11.928ZM147.276 55.992L143.896 58.1303L147.308 63.5243L150.674 58.102L147.276 55.992ZM106.524 66.072L109.908 63.9391L106.484 58.5059L103.118 63.9756L106.524 66.072ZM121.5 89.832L125.044 91.688L126.112 89.6477L124.884 87.6991L121.5 89.832ZM110.412 111V115H112.833L113.956 112.856L110.412 111ZM78.8763 111L75.4696 108.904L71.718 115H78.8763V111ZM79.4523 15.928H112.14V7.928H79.4523V15.928ZM108.764 14.0726L171.692 113.145L178.445 108.855L115.517 9.78335L108.764 14.0726ZM175.068 107H142.236V115H175.068V107ZM145.615 108.859L82.8309 9.78685L76.0736 14.0691L138.858 113.141L145.615 108.859ZM135.672 33.9964L146.616 13.8364L139.585 10.0196L128.641 30.1796L135.672 33.9964ZM143.1 15.928H174.636V7.928H143.1V15.928ZM171.238 9.81799L143.878 53.882L150.674 58.102L178.034 14.038L171.238 9.81799ZM150.657 53.8537L135.537 29.9497L128.776 34.2263L143.896 58.1303L150.657 53.8537ZM103.14 68.2049L118.116 91.9649L124.884 87.6991L109.908 63.9391L103.14 68.2049ZM117.957 87.976L106.869 109.144L113.956 112.856L125.044 91.688L117.957 87.976ZM110.412 107H78.8763V115H110.412V107ZM82.2829 113.096L109.931 68.1684L103.118 63.9756L75.4696 108.904L82.2829 113.096ZM226.56 57.288L225.928 61.2378L226.05 61.2574L226.174 61.2694L226.56 57.288ZM209.856 57.288H205.856V62.7038L211.032 61.1111L209.856 57.288ZM209.856 36.408L209.912 32.4084L205.856 32.3513V36.408H209.856ZM231.024 39H235.024V35.7959L231.897 35.0965L231.024 39ZM231.024 57.72L230.638 61.7014L235.024 62.1258V57.72H231.024ZM190.992 109.416L189.464 113.113L189.464 113.113L190.992 109.416ZM181.2 101.352L184.638 99.3077L184.615 99.2696L184.591 99.232L181.2 101.352ZM177.456 90.552L173.482 91.014L173.488 91.0595L173.494 91.1048L177.456 90.552ZM177.456 59.304L173.484 58.8311L173.484 58.8311L177.456 59.304ZM180.48 48.648L176.921 46.8208L176.911 46.8399L176.902 46.8591L180.48 48.648ZM188.688 40.44L190.55 43.9797L190.567 43.9709L190.584 43.9619L188.688 40.44ZM203.808 36.696H207.808V32.3815L203.505 32.7074L203.808 36.696ZM204.096 83.784L200.112 84.1461L200.12 84.2355L200.132 84.3245L204.096 83.784ZM205.68 88.68L202.351 90.8988L202.413 90.9912L202.48 91.08L205.68 88.68ZM209.28 91.128L208.086 94.9459L208.119 94.956L208.151 94.9655L209.28 91.128ZM226.704 91.416L226.236 87.4434L226.173 87.4508L226.11 87.4603L226.704 91.416ZM231.6 90.84H235.6V86.3418L231.132 86.8674L231.6 90.84ZM231.6 109.56L232.545 113.447L235.6 112.704V109.56H231.6ZM227.191 53.3382C224.475 52.9037 220.769 52.712 216.192 52.712V60.712C220.638 60.712 223.844 60.9043 225.928 61.2378L227.191 53.3382ZM216.192 52.712C213.194 52.712 210.551 52.8888 208.679 53.4649L211.032 61.1111C211.656 60.9192 213.237 60.712 216.192 60.712V52.712ZM213.856 57.288V36.408H205.856V57.288H213.856ZM209.799 40.4076C216.315 40.4994 223.097 41.3258 230.15 42.9035L231.897 35.0965C224.358 33.4102 217.028 32.5086 209.912 32.4084L209.799 40.4076ZM227.024 39V57.72H235.024V39H227.024ZM231.409 53.7386L226.945 53.3066L226.174 61.2694L230.638 61.7014L231.409 53.7386ZM208.848 108.152C201.619 108.152 196.255 107.262 192.519 105.719L189.464 113.113C194.56 115.218 201.1 116.152 208.848 116.152V108.152ZM192.519 105.719C188.772 104.171 186.241 102.005 184.638 99.3077L177.761 103.396C180.382 107.803 184.379 111.013 189.464 113.113L192.519 105.719ZM184.591 99.232C183.011 96.7032 181.927 93.654 181.417 89.9992L173.494 91.1048C174.136 95.706 175.548 99.8568 177.808 103.472L184.591 99.232ZM181.429 90.09C180.974 86.1777 180.736 80.9726 180.736 74.424H172.736C172.736 81.1234 172.977 86.6703 173.482 91.014L181.429 90.09ZM180.736 74.424C180.736 68.4656 180.973 63.5961 181.427 59.7768L173.484 58.8311C172.978 63.0759 172.736 68.2864 172.736 74.424H180.736ZM181.427 59.7768C181.863 56.1215 182.761 53.0287 184.057 50.4369L176.902 46.8591C175.126 50.4113 174.008 54.4225 173.484 58.8311L181.427 59.7768ZM184.038 50.4752C185.473 47.6796 187.605 45.5299 190.55 43.9797L186.825 36.9003C182.474 39.1901 179.134 42.5124 176.921 46.8208L184.038 50.4752ZM190.584 43.9619C193.653 42.3092 198.081 41.1413 204.11 40.6846L203.505 32.7074C196.862 33.2107 191.21 34.5388 186.791 36.9181L190.584 43.9619ZM199.808 36.696V74.28H207.808V36.696H199.808ZM199.808 74.28C199.808 78.5313 199.903 81.847 200.112 84.1461L208.079 83.4219C207.904 81.497 207.808 78.4767 207.808 74.28H199.808ZM200.132 84.3245C200.462 86.7438 201.115 89.0439 202.351 90.8988L209.008 86.4612C208.708 86.0121 208.305 85.0482 208.059 83.2435L200.132 84.3245ZM202.48 91.08C203.906 92.9816 205.848 94.2463 208.086 94.9459L210.473 87.3101C209.639 87.0497 209.181 86.6824 208.88 86.28L202.48 91.08ZM208.151 94.9655C210.325 95.6048 213.074 95.848 216.192 95.848V87.848C213.357 87.848 211.499 87.6112 210.408 87.2905L208.151 94.9655ZM216.192 95.848C221.26 95.848 225.043 95.7098 227.297 95.3717L226.11 87.4603C224.524 87.6982 221.299 87.848 216.192 87.848V95.848ZM227.171 95.3886L232.067 94.8126L231.132 86.8674L226.236 87.4434L227.171 95.3886ZM227.6 90.84V109.56H235.6V90.84H227.6ZM230.654 105.673C223.889 107.319 216.625 108.152 208.848 108.152V116.152C217.198 116.152 225.102 115.257 232.545 113.447L230.654 105.673ZM245.833 4.008V0.00799561H241.833V4.008H245.833ZM272.473 4.008H276.473V0.00799561H272.473V4.008ZM272.473 111V115H276.473V111H272.473ZM245.833 111H241.833V115H245.833V111ZM287.305 66.216L291.298 65.9811L291.297 65.9561L291.295 65.931L287.305 66.216ZM286.585 60.888L290.38 59.6231L290.343 59.5116L290.299 59.4024L286.585 60.888ZM284.569 59.16L283.42 62.9913L283.6 63.0454L283.785 63.0823L284.569 59.16ZM278.521 58.728H274.521V62.728H278.521V58.728ZM278.521 41.16L276.022 38.0365L274.521 39.2375V41.16H278.521ZM310.633 44.472L307.148 46.4361L307.163 46.4619L307.178 46.4875L310.633 44.472ZM313.369 52.968L309.409 53.5337L309.41 53.5418L309.412 53.55L313.369 52.968ZM314.089 111V115H318.089V111H314.089ZM287.449 111H283.449V115H287.449V111ZM245.833 8.008H272.473V0.00799561H245.833V8.008ZM268.473 4.008V111H276.473V4.008H268.473ZM272.473 107H245.833V115H272.473V107ZM249.833 111V4.008H241.833V111H249.833ZM291.449 76.296C291.449 71.2309 291.402 67.7511 291.298 65.9811L283.312 66.4509C283.4 67.9449 283.449 71.1851 283.449 76.296H291.449ZM291.295 65.931C291.109 63.3252 290.853 61.043 290.38 59.6231L282.79 62.1529C282.789 62.1482 282.797 62.1729 282.813 62.2349C282.828 62.2955 282.847 62.3799 282.87 62.4915C282.915 62.7172 282.965 63.0176 283.017 63.4037C283.122 64.1782 283.223 65.2037 283.315 66.501L291.295 65.931ZM290.299 59.4024C289.447 57.2718 287.726 55.7121 285.353 55.2377L283.785 63.0823C283.665 63.0585 283.428 62.9771 283.19 62.773C282.96 62.5756 282.878 62.3918 282.871 62.3736L290.299 59.4024ZM285.718 55.3287C284.164 54.8623 282.131 54.728 279.961 54.728V62.728C282.015 62.728 283.054 62.8817 283.42 62.9913L285.718 55.3287ZM279.961 54.728H278.521V62.728H279.961V54.728ZM282.521 58.728V41.16H274.521V58.728H282.521ZM281.02 44.2835C284.01 41.8911 287.968 40.552 293.209 40.552V32.552C286.546 32.552 280.712 34.2849 276.022 38.0365L281.02 44.2835ZM293.209 40.552C301.09 40.552 305.164 42.9146 307.148 46.4361L314.118 42.5079C310.15 35.4694 302.608 32.552 293.209 32.552V40.552ZM307.178 46.4875C308.201 48.2419 308.983 50.5514 309.409 53.5337L317.329 52.4023C316.795 48.6646 315.753 45.3101 314.088 42.4565L307.178 46.4875ZM309.412 53.55C309.854 56.5562 310.089 60.3796 310.089 65.064H318.089C318.089 60.1484 317.844 55.9078 317.326 52.386L309.412 53.55ZM310.089 65.064V111H318.089V65.064H310.089ZM314.089 107H287.449V115H314.089V107ZM291.449 111V76.296H283.449V111H291.449ZM366.057 57.864L364.115 61.3606L364.191 61.4028L364.268 61.4417L366.057 57.864ZM361.161 56.856L361.48 52.8687L361.454 52.8666L361.427 52.8649L361.161 56.856ZM338.985 57.288L339.211 61.2816L339.293 61.277L339.374 61.2691L338.985 57.288ZM331.353 57.72H327.353V61.9528L331.579 61.7136L331.353 57.72ZM331.353 39L330.601 35.0714L327.353 35.6933V39H331.353ZM379.449 38.136L378.46 42.0117L378.469 42.0141L378.479 42.0166L379.449 38.136ZM389.817 43.608L392.828 40.974L392.793 40.934L392.756 40.8949L389.817 43.608ZM393.705 52.392L389.757 53.0323L389.765 53.084L389.775 53.1356L393.705 52.392ZM394.713 111V115H398.713V111H394.713ZM368.073 111H364.073V115H368.073V111ZM332.073 106.536L329.02 109.12L329.036 109.139L329.053 109.159L332.073 106.536ZM328.329 78.6L332.218 79.5386L332.221 79.5238L332.225 79.5089L328.329 78.6ZM331.785 71.832L334.614 74.6604L334.654 74.62L334.693 74.5785L331.785 71.832ZM338.553 68.232L339.462 72.1274L339.523 72.1131L339.584 72.0969L338.553 68.232ZM349.929 67.08L350.024 63.0811L349.977 63.08H349.929V67.08ZM362.025 67.368H366.025V63.4621L362.12 63.3691L362.025 67.368ZM362.025 80.184V84.184H366.025V80.184H362.025ZM356.265 80.328L356.465 84.323L356.649 84.3138L356.831 84.2878L356.265 80.328ZM353.241 83.064L357.187 83.7216L357.223 83.5051L357.235 83.2859L353.241 83.064ZM353.241 89.976L349.272 90.4721L349.302 90.7118L349.361 90.9461L353.241 89.976ZM354.105 91.848L357.36 89.523L357.297 89.4343L357.229 89.3492L354.105 91.848ZM356.265 93L356.831 89.0402L356.747 89.0283L356.663 89.0199L356.265 93ZM362.025 93.288H366.025V89.288H362.025V93.288ZM362.025 107.976L364.471 111.141L366.025 109.94V107.976H362.025ZM355.257 111.144L354.473 107.222L354.379 107.24L354.287 107.263L355.257 111.144ZM372.073 65.496C372.073 62.9907 371.983 60.8961 371.721 59.4525L363.85 60.8835C363.971 61.5519 364.073 63.0093 364.073 65.496H372.073ZM371.721 59.4525C371.304 57.1577 369.932 55.3293 367.846 54.2863L364.268 61.4417C364.269 61.4421 364.236 61.4253 364.183 61.3825C364.129 61.3386 364.067 61.2776 364.009 61.2C363.951 61.1224 363.91 61.0463 363.883 60.9822C363.856 60.9197 363.85 60.8827 363.85 60.8835L371.721 59.4525ZM368 54.3674C366.295 53.4202 363.857 53.0588 361.48 52.8687L360.842 60.8433C361.944 60.9314 362.777 61.046 363.379 61.1698C364.03 61.3039 364.199 61.4072 364.115 61.3606L368 54.3674ZM361.427 52.8649C359.829 52.7583 356.569 52.712 351.801 52.712V60.712C356.634 60.712 359.613 60.7617 360.895 60.8471L361.427 52.8649ZM351.801 52.712C347.084 52.712 342.681 52.9085 338.597 53.3069L339.374 61.2691C343.162 60.8995 347.302 60.712 351.801 60.712V52.712ZM338.759 53.2944L331.127 53.7264L331.579 61.7136L339.211 61.2816L338.759 53.2944ZM335.353 57.72V39H327.353V57.72H335.353ZM332.106 42.9286C340.85 41.2541 350.34 40.408 360.585 40.408V32.408C349.903 32.408 339.904 33.2899 330.601 35.0714L332.106 42.9286ZM360.585 40.408C368.521 40.408 374.423 40.981 378.46 42.0117L380.439 34.2603C375.452 32.987 368.778 32.408 360.585 32.408V40.408ZM378.479 42.0166C382.621 43.052 385.274 44.5836 386.878 46.3211L392.756 40.8949C389.752 37.6404 385.494 35.524 380.419 34.2554L378.479 42.0166ZM386.807 46.242C388.249 47.8898 389.279 50.088 389.757 53.0323L397.654 51.7517C396.979 47.592 395.418 43.9342 392.828 40.974L386.807 46.242ZM389.775 53.1356C390.379 56.326 390.713 60.9814 390.713 67.224H398.713C398.713 60.7946 398.376 55.562 397.636 51.6484L389.775 53.1356ZM390.713 67.224V111H398.713V67.224H390.713ZM394.713 107H368.073V115H394.713V107ZM372.073 111V65.496H364.073V111H372.073ZM346.761 108.008C340.846 108.008 337.249 106.396 335.093 103.913L329.053 109.159C333.233 113.972 339.428 116.008 346.761 116.008V108.008ZM335.127 103.952C332.82 101.226 331.321 96.7074 331.321 89.688H323.321C323.321 97.6446 324.99 104.358 329.02 109.12L335.127 103.952ZM331.321 89.688C331.321 85.2297 331.651 81.8872 332.218 79.5386L324.441 77.6614C323.664 80.8808 323.321 84.9303 323.321 89.688H331.321ZM332.225 79.5089C332.774 77.154 333.639 75.6352 334.614 74.6604L328.957 69.0036C326.668 71.2928 325.228 74.286 324.434 77.6911L332.225 79.5089ZM334.693 74.5785C335.668 73.5467 337.16 72.6646 339.462 72.1274L337.644 64.3366C334.187 65.1434 331.167 66.6613 328.877 69.0855L334.693 74.5785ZM339.584 72.0969C341.992 71.4547 345.397 71.08 349.929 71.08V63.08C345.053 63.08 340.874 63.4733 337.523 64.3671L339.584 72.0969ZM349.834 71.0789L361.93 71.3669L362.12 63.3691L350.024 63.0811L349.834 71.0789ZM358.025 67.368V80.184H366.025V67.368H358.025ZM362.025 76.184H360.585V84.184H362.025V76.184ZM360.585 76.184C358.442 76.184 356.705 76.2245 355.7 76.3682L356.831 84.2878C357.169 84.2395 358.312 84.184 360.585 84.184V76.184ZM356.066 76.333C354.559 76.4083 352.809 76.8303 351.386 78.1179C349.902 79.4598 349.337 81.2276 349.247 82.8421L357.235 83.2859C357.239 83.2161 357.245 83.2967 357.175 83.4642C357.098 83.6476 356.96 83.8629 356.753 84.0501C356.338 84.4257 356.052 84.3437 356.465 84.323L356.066 76.333ZM349.296 82.4064C349.136 83.3667 349.097 84.9062 349.097 86.664H357.097C357.097 85.7811 357.109 85.0829 357.13 84.5559C357.141 84.293 357.153 84.0889 357.165 83.9363C357.178 83.7747 357.188 83.7134 357.187 83.7216L349.296 82.4064ZM349.097 86.664C349.097 88.1547 349.145 89.4552 349.272 90.4721L357.21 89.4799C357.145 88.9608 357.097 88.0533 357.097 86.664H349.097ZM349.361 90.9461C349.654 92.1177 350.151 93.308 350.982 94.3468L357.229 89.3492C357.292 89.428 357.213 89.3703 357.122 89.0059L349.361 90.9461ZM350.85 94.173C352.115 95.9433 353.974 96.7908 355.867 96.9801L356.663 89.0199C356.61 89.0145 356.711 89.0164 356.888 89.1106C357.079 89.2125 357.246 89.3634 357.36 89.523L350.85 94.173ZM355.7 96.9598C357.253 97.1818 358.884 97.288 360.585 97.288V89.288C359.214 89.288 357.965 89.2022 356.831 89.0402L355.7 96.9598ZM360.585 97.288H362.025V89.288H360.585V97.288ZM358.025 93.288V107.976H366.025V93.288H358.025ZM359.579 104.811C357.911 106.1 356.215 106.873 354.473 107.222L356.042 115.066C359.1 114.455 361.916 113.116 364.471 111.141L359.579 104.811ZM354.287 107.263C352.401 107.735 349.918 108.008 346.761 108.008V116.008C350.325 116.008 353.505 115.705 356.227 115.025L354.287 107.263ZM452.258 66.216L456.251 65.9811L456.25 65.9561L456.248 65.931L452.258 66.216ZM451.538 60.888L455.333 59.6231L455.296 59.5116L455.252 59.4024L451.538 60.888ZM449.522 59.16L448.373 62.9913L448.553 63.0454L448.738 63.0823L449.522 59.16ZM443.474 58.728H439.474V62.728H443.474V58.728ZM443.474 40.728L441.087 37.5181L439.474 38.7177V40.728H443.474ZM475.586 44.472L472.102 46.4361L472.116 46.4619L472.131 46.4875L475.586 44.472ZM478.322 52.968L474.362 53.5337L474.363 53.5418L474.365 53.55L478.322 52.968ZM479.042 111V115H483.042V111H479.042ZM452.402 111H448.402V115H452.402V111ZM410.786 37.56V33.56H406.786V37.56H410.786ZM437.426 37.56H441.426V33.56H437.426V37.56ZM437.426 111V115H441.426V111H437.426ZM410.786 111H406.786V115H410.786V111ZM456.402 76.296C456.402 71.2309 456.355 67.7511 456.251 65.9811L448.265 66.4509C448.353 67.9449 448.402 71.1851 448.402 76.296H456.402ZM456.248 65.931C456.062 63.3252 455.806 61.043 455.333 59.6231L447.743 62.1529C447.742 62.1482 447.75 62.1729 447.766 62.2349C447.781 62.2955 447.8 62.3799 447.823 62.4915C447.868 62.7172 447.918 63.0176 447.97 63.4037C448.075 64.1782 448.176 65.2037 448.268 66.501L456.248 65.931ZM455.252 59.4024C454.4 57.2718 452.679 55.7121 450.307 55.2377L448.738 63.0823C448.619 63.0585 448.381 62.9771 448.143 62.773C447.913 62.5756 447.832 62.3918 447.824 62.3736L455.252 59.4024ZM450.672 55.3287C449.117 54.8623 447.084 54.728 444.914 54.728V62.728C446.968 62.728 448.007 62.8817 448.373 62.9913L450.672 55.3287ZM444.914 54.728H443.474V62.728H444.914V54.728ZM447.474 58.728V40.728H439.474V58.728H447.474ZM445.861 43.9378C448.735 41.8008 452.719 40.552 458.162 40.552V32.552C451.509 32.552 445.701 34.0872 441.087 37.5181L445.861 43.9378ZM458.162 40.552C466.043 40.552 470.117 42.9146 472.102 46.4361L479.071 42.5079C475.104 35.4694 467.561 32.552 458.162 32.552V40.552ZM472.131 46.4875C473.154 48.2419 473.936 50.5514 474.362 53.5337L482.282 52.4023C481.748 48.6646 480.706 45.3101 479.041 42.4565L472.131 46.4875ZM474.365 53.55C474.807 56.5562 475.042 60.3796 475.042 65.064H483.042C483.042 60.1484 482.797 55.9078 482.28 52.386L474.365 53.55ZM475.042 65.064V111H483.042V65.064H475.042ZM479.042 107H452.402V115H479.042V107ZM456.402 111V76.296H448.402V111H456.402ZM410.786 41.56H437.426V33.56H410.786V41.56ZM433.426 37.56V111H441.426V37.56H433.426ZM437.426 107H410.786V115H437.426V107ZM414.786 111V37.56H406.786V111H414.786ZM505.09 108.696L503.302 112.274L503.353 112.3L503.406 112.324L505.09 108.696ZM498.466 102.36L501.896 100.302L501.881 100.276L501.865 100.251L498.466 102.36ZM498.466 44.328L495.102 42.165L495.102 42.165L498.466 44.328ZM505.09 38.424L506.775 42.052L506.775 42.052L505.09 38.424ZM523.234 37.416L524.205 33.5354L524.205 33.5354L523.234 37.416ZM529.57 40.584H533.57V38.6615L532.069 37.4605L529.57 40.584ZM529.57 58.728V62.728H533.57V58.728H529.57ZM523.378 59.16L524.246 63.0647L524.388 63.0332L524.528 62.9913L523.378 59.16ZM521.362 60.6L517.97 58.48L517.83 58.7041L517.721 58.9448L521.362 60.6ZM520.498 65.064L524.488 65.349L524.491 65.3064L524.493 65.2637L520.498 65.064ZM520.498 82.056L524.494 81.8657L524.492 81.8183L524.488 81.771L520.498 82.056ZM521.362 86.52L517.785 88.3089L517.824 88.3866L517.866 88.4626L521.362 86.52ZM523.666 88.104L522.951 92.0395L523.026 92.0531L523.101 92.0638L523.666 88.104ZM529.57 88.392H533.57V84.392H529.57V88.392ZM529.57 106.68L532.069 109.803L533.57 108.602V106.68H529.57ZM523.378 109.848L524.228 113.757L524.308 113.739L524.388 113.718L523.378 109.848ZM507.25 139.8L506.852 143.78L506.881 143.783L506.909 143.785L507.25 139.8ZM498.61 138.936H494.61V142.556L498.212 142.916L498.61 138.936ZM498.61 120.36V116.36H494.61V120.36H498.61ZM527.986 120.072L528.221 124.065L528.263 124.063L528.305 124.059L527.986 120.072ZM533.17 118.632L531.155 115.177L530.981 115.278L530.818 115.397L533.17 118.632ZM535.33 115.032L539.276 115.69L539.303 115.528L539.317 115.364L535.33 115.032ZM535.618 37.56V33.56H531.618V37.56H535.618ZM562.258 37.56H566.258V33.56H562.258V37.56ZM561.25 120.504L557.3 119.876L557.298 119.889L561.25 120.504ZM556.93 131.304L560.072 133.779L560.089 133.759L560.105 133.738L556.93 131.304ZM545.41 138.36L544.274 134.525L544.264 134.528L544.254 134.531L545.41 138.36ZM514.882 106.568C511.459 106.568 508.803 106.01 506.775 105.068L503.406 112.324C506.753 113.878 510.626 114.568 514.882 114.568V106.568ZM506.879 105.118C504.95 104.154 503.28 102.609 501.896 100.302L495.036 104.418C497.108 107.871 499.855 110.55 503.302 112.274L506.879 105.118ZM501.865 100.251C499.045 95.7079 497.282 87.0117 497.282 73.272H489.282C489.282 87.1803 490.975 97.8761 495.068 104.469L501.865 100.251ZM497.282 73.272C497.282 59.4062 499.055 50.8093 501.831 46.491L495.102 42.165C490.966 48.5987 489.282 59.2978 489.282 73.272H497.282ZM501.831 46.491C503.183 44.3887 504.828 42.9557 506.775 42.052L503.406 34.796C499.976 36.3883 497.206 38.8913 495.102 42.165L501.831 46.491ZM506.775 42.052C508.803 41.1102 511.459 40.552 514.882 40.552V32.552C510.626 32.552 506.753 33.2417 503.406 34.796L506.775 42.052ZM514.882 40.552C517.932 40.552 520.371 40.8232 522.264 41.2966L524.205 33.5354C521.49 32.8568 518.361 32.552 514.882 32.552V40.552ZM522.264 41.2966C523.99 41.7281 525.584 42.5178 527.072 43.7075L532.069 37.4605C529.716 35.5782 527.086 34.2559 524.205 33.5354L522.264 41.2966ZM525.57 40.584V58.728H533.57V40.584H525.57ZM529.57 54.728H527.986V62.728H529.57V54.728ZM527.986 54.728C525.817 54.728 523.784 54.8623 522.229 55.3287L524.528 62.9913C524.893 62.8817 525.932 62.728 527.986 62.728V54.728ZM522.511 55.2553C520.573 55.6858 519.004 56.8266 517.97 58.48L524.754 62.72C524.743 62.7374 524.682 62.8259 524.551 62.9189C524.419 63.0131 524.3 63.0527 524.246 63.0647L522.511 55.2553ZM517.721 58.9448C516.94 60.6633 516.61 62.7281 516.503 64.8642L524.493 65.2637C524.579 63.5599 524.825 62.6487 525.004 62.2552L517.721 58.9448ZM516.509 64.779C516.401 66.2913 516.354 69.2709 516.354 73.56H524.354C524.354 69.2091 524.404 66.5247 524.488 65.349L516.509 64.779ZM516.354 73.56C516.354 77.8491 516.401 80.8287 516.509 82.341L524.488 81.771C524.404 80.5953 524.354 77.9109 524.354 73.56H516.354ZM516.503 82.2463C516.606 84.4143 516.923 86.5849 517.785 88.3089L524.94 84.7311C524.842 84.5351 524.583 83.7297 524.494 81.8657L516.503 82.2463ZM517.866 88.4626C518.982 90.4723 520.832 91.6542 522.951 92.0395L524.382 84.1685C524.326 84.1584 524.417 84.1665 524.564 84.2678C524.72 84.375 524.818 84.5027 524.859 84.5774L517.866 88.4626ZM523.101 92.0638C524.655 92.2858 526.285 92.392 527.986 92.392V84.392C526.616 84.392 525.366 84.3062 524.232 84.1442L523.101 92.0638ZM527.986 92.392H529.57V84.392H527.986V92.392ZM525.57 88.392V106.68H533.57V88.392H525.57ZM527.072 103.557C525.556 104.769 523.992 105.554 522.369 105.978L524.388 113.718C527.18 112.99 529.745 111.663 532.069 109.803L527.072 103.557ZM522.529 105.939C520.705 106.336 518.186 106.568 514.882 106.568V114.568C518.491 114.568 521.635 114.32 524.228 113.757L522.529 105.939ZM524.53 136.664C519.88 136.664 514.24 136.384 507.592 135.815L506.909 143.785C513.701 144.368 519.581 144.664 524.53 144.664V136.664ZM507.648 135.82L499.008 134.956L498.212 142.916L506.852 143.78L507.648 135.82ZM502.61 138.936V120.36H494.61V138.936H502.61ZM498.61 124.36H517.906V116.36H498.61V124.36ZM517.906 124.36C521.436 124.36 524.875 124.262 528.221 124.065L527.751 116.079C524.57 116.266 521.288 116.36 517.906 116.36V124.36ZM528.305 124.059C530.912 123.851 533.553 123.299 535.523 121.867L530.818 115.397C530.675 115.501 529.861 115.909 527.667 116.085L528.305 124.059ZM535.186 122.087C537.666 120.64 538.858 118.197 539.276 115.69L531.385 114.374C531.303 114.863 531.19 115.094 531.144 115.17C531.113 115.222 531.12 115.197 531.155 115.177L535.186 122.087ZM539.317 115.364C539.519 112.937 539.618 110.378 539.618 107.688H531.618C531.618 110.182 531.526 112.519 531.344 114.7L539.317 115.364ZM539.618 107.688V37.56H531.618V107.688H539.618ZM535.618 41.56H562.258V33.56H535.618V41.56ZM558.258 37.56V102.936H566.258V37.56H558.258ZM558.258 102.936C558.258 110.345 557.923 115.958 557.3 119.876L565.201 121.132C565.921 116.602 566.258 110.503 566.258 102.936H558.258ZM557.298 119.889C556.708 123.682 555.481 126.621 553.756 128.87L560.105 133.738C562.796 130.227 564.449 125.966 565.203 121.119L557.298 119.889ZM553.788 128.829C551.953 131.159 548.931 133.145 544.274 134.525L546.547 142.195C552.258 140.503 556.916 137.785 560.072 133.779L553.788 128.829ZM544.254 134.531C539.707 135.903 533.193 136.664 524.53 136.664V144.664C533.532 144.664 540.938 143.889 546.566 142.189L544.254 134.531ZM609.076 67.08V63.08H605.076V67.08H609.076ZM619.156 67.08V71.08H623.156V67.08H619.156ZM617.572 56.712L614.244 58.9308L614.26 58.9546L614.276 58.9781L617.572 56.712ZM615.268 55.128L614.119 58.9593L614.299 59.0134L614.484 59.0503L615.268 55.128ZM609.076 54.696H605.076V58.696H609.076V54.696ZM609.076 36.408V32.408H605.076V36.408H609.076ZM630.1 38.424L628.936 42.2507L628.947 42.2542L628.958 42.2575L630.1 38.424ZM640.036 45.048L636.74 47.3141L636.761 47.3437L636.781 47.3729L640.036 45.048ZM643.492 55.416L639.509 55.7781L639.513 55.8229L639.518 55.8676L643.492 55.416ZM644.212 80.184V84.184H648.212V80.184H644.212ZM609.076 80.184H605.076V84.184H609.076V80.184ZM593.092 109.992L591.916 113.815L591.959 113.828L592.003 113.841L593.092 109.992ZM581.86 102.792L585.038 100.362L585.035 100.358L581.86 102.792ZM577.54 92.136L573.588 92.7508L573.59 92.7645L577.54 92.136ZM577.252 58.008L581.224 58.4808L581.226 58.47L577.252 58.008ZM580.276 47.496L576.765 45.5806L576.756 45.5971L576.747 45.6136L580.276 47.496ZM588.196 40.152L589.946 43.7489L589.966 43.7394L589.985 43.7297L588.196 40.152ZM603.028 36.696H607.028V32.3765L602.722 32.7078L603.028 36.696ZM603.46 87.24L599.538 88.0245L599.543 88.0513L599.549 88.0781L603.46 87.24ZM605.476 90.264L607.695 86.9358L607.66 86.9122L607.624 86.8894L605.476 90.264ZM610.804 91.56L611.054 87.5678L611.009 87.565L610.964 87.5632L610.804 91.56ZM633.988 91.416L633.676 87.4282L633.626 87.4321L633.577 87.4372L633.988 91.416ZM641.332 90.84H645.332V86.514L641.02 86.8522L641.332 90.84ZM641.332 109.416L642.482 113.247L645.332 112.392V109.416H641.332ZM625.492 111.72L625.264 107.727L625.202 107.73L625.141 107.735L625.492 111.72ZM609.076 71.08H619.156V63.08H609.076V71.08ZM623.156 67.08C623.156 64.2849 623.021 61.8559 622.714 59.8519C622.426 57.9613 621.921 55.9774 620.869 54.4459L614.276 58.9781C614.247 58.9356 614.33 59.0461 614.453 59.4338C614.571 59.8069 614.696 60.3379 614.806 61.0601C615.028 62.5121 615.156 64.4991 615.156 67.08H623.156ZM620.901 54.4932C619.776 52.8059 618.121 51.6193 616.053 51.2057L614.484 59.0503C614.477 59.049 614.452 59.0431 614.414 59.0273C614.375 59.0113 614.335 58.9897 614.298 58.9642C614.218 58.9087 614.206 58.8739 614.244 58.9308L620.901 54.4932ZM616.418 51.2967C614.897 50.8404 613.042 50.696 611.092 50.696V58.696C612.79 58.696 613.72 58.8396 614.119 58.9593L616.418 51.2967ZM611.092 50.696H609.076V58.696H611.092V50.696ZM613.076 54.696V36.408H605.076V54.696H613.076ZM609.076 40.408H611.092V32.408H609.076V40.408ZM611.092 40.408C619.212 40.408 625.083 41.0783 628.936 42.2507L631.265 34.5973C626.285 33.0817 619.484 32.408 611.092 32.408V40.408ZM628.958 42.2575C632.829 43.4106 635.27 45.1754 636.74 47.3141L643.333 42.7819C640.579 38.7766 636.395 36.1254 631.242 34.5905L628.958 42.2575ZM636.781 47.3729C638.187 49.3409 639.171 52.0645 639.509 55.7781L647.476 55.0539C647.046 50.3195 645.726 46.1311 643.291 42.723L636.781 47.3729ZM639.518 55.8676C639.971 59.8588 640.212 66.0104 640.212 74.424H648.212C648.212 65.9416 647.973 59.4212 647.467 54.9644L639.518 55.8676ZM640.212 74.424V80.184H648.212V74.424H640.212ZM644.212 76.184H609.076V84.184H644.212V76.184ZM613.076 80.184V67.08H605.076V80.184H613.076ZM613.972 108.152C605.298 108.152 598.758 107.438 594.182 106.143L592.003 113.841C597.603 115.426 604.983 116.152 613.972 116.152V108.152ZM594.269 106.169C589.856 104.811 586.906 102.805 585.038 100.362L578.683 105.222C581.807 109.307 586.345 112.101 591.916 113.815L594.269 106.169ZM585.035 100.358C583.298 98.0931 582.077 95.1921 581.491 91.5075L573.59 92.7645C574.348 97.5279 576.007 101.731 578.686 105.226L585.035 100.358ZM581.493 91.5212C580.867 87.4978 580.532 81.829 580.532 74.424H572.532C572.532 81.995 572.87 88.1342 573.588 92.7508L581.493 91.5212ZM580.532 74.424C580.532 67.577 580.771 62.2848 581.224 58.4808L573.28 57.5351C572.773 61.7952 572.532 67.447 572.532 74.424H580.532ZM581.226 58.47C581.663 54.709 582.56 51.7144 583.806 49.3784L576.747 45.6136C574.921 49.0376 573.802 53.051 573.279 57.546L581.226 58.47ZM583.788 49.4114C585.08 47.0427 587.068 45.1493 589.946 43.7489L586.447 36.5551C582.221 38.6107 578.929 41.6132 576.765 45.5806L583.788 49.4114ZM589.985 43.7297C592.991 42.2269 597.364 41.1435 603.335 40.6842L602.722 32.7078C596.213 33.2084 590.698 34.4291 586.408 36.5743L589.985 43.7297ZM599.028 36.696V80.184H607.028V36.696H599.028ZM599.028 80.184C599.028 83.4721 599.166 86.1663 599.538 88.0245L607.383 86.4555C607.178 85.4337 607.028 83.4239 607.028 80.184H599.028ZM599.549 88.0781C600.037 90.3564 601.276 92.3321 603.329 93.6386L607.624 86.8894C607.55 86.8421 607.525 86.8104 607.509 86.7852C607.487 86.7532 607.424 86.6469 607.372 86.4019L599.549 88.0781ZM603.258 93.5922C605.322 94.9685 607.983 95.4503 610.645 95.5568L610.964 87.5632C608.826 87.4777 607.935 87.0955 607.695 86.9358L603.258 93.5922ZM610.555 95.5522C613.719 95.75 617.067 95.848 620.596 95.848V87.848C617.214 87.848 614.033 87.754 611.054 87.5678L610.555 95.5522ZM620.596 95.848C626.756 95.848 631.396 95.7055 634.4 95.3948L633.577 87.4372C631.013 87.7025 626.725 87.848 620.596 87.848V95.848ZM634.301 95.4038L641.645 94.8278L641.02 86.8522L633.676 87.4282L634.301 95.4038ZM637.332 90.84V109.416H645.332V90.84H637.332ZM640.183 105.585C636.777 106.607 631.852 107.35 625.264 107.727L625.721 115.713C632.573 115.322 638.208 114.529 642.482 113.247L640.183 105.585ZM625.141 107.735C622.026 108.01 618.308 108.152 613.972 108.152V116.152C618.468 116.152 622.431 116.006 625.844 115.705L625.141 107.735Z" fill="black"/>
</svg>
